<svg width="785" height="835" viewBox="0 0 785 835" fill="none" xmlns="http://www.w3.org/2000/svg">
<path opacity="0.5" d="M52.6622 322.711C52.6622 322.711 61.9554 23.2732 229.217 79.8515C396.48 136.43 424.768 280.049 544.452 169.07C664.136 58.0914 829.516 277.908 657.608 446.536C485.7 615.164 855.629 719.614 670.664 800.128C485.698 880.642 375.851 580.346 242.545 719.613C109.239 858.881 -43.0853 658.276 11.3165 536.62C65.7182 414.964 52.6622 322.711 52.6622 322.711Z" fill="#44B78B"/>
<path opacity="0.2" d="M322.322 750.639C322.322 750.639 28.5636 809.421 45.7799 633.69C62.9961 457.959 196.473 397.871 61.2671 306.439C-73.9393 215.007 102.698 4.13032 305.885 133.37C509.073 262.609 527.006 -121.366 647.328 40.5519C767.65 202.47 500.045 377.488 665.891 475.78C831.737 574.071 670.853 767.879 540.036 742.451C409.219 717.024 322.322 750.639 322.322 750.639Z" fill="#44B78B"/>
<path d="M452.799 366.321C452.799 364.385 451.23 362.816 449.294 362.816C447.358 362.816 445.789 364.385 445.789 366.321C445.789 368.257 447.358 369.826 449.294 369.826C451.231 369.826 452.799 368.257 452.799 366.321Z" fill="white"/>
<path d="M409.012 826.282C409.012 824.817 407.824 823.629 406.359 823.629C404.894 823.629 403.708 824.817 403.708 826.282C403.708 827.747 404.895 828.934 406.359 828.934C407.824 828.934 409.012 827.747 409.012 826.282Z" fill="white"/>
<path d="M278.989 484.62C278.989 481.157 276.183 478.35 272.721 478.35C269.258 478.35 266.452 481.157 266.452 484.62C266.452 488.082 269.258 490.888 272.721 490.888C276.183 490.888 278.989 488.082 278.989 484.62Z" fill="white"/>
<path d="M683.35 777.119C683.35 774.775 681.45 772.875 679.106 772.875C676.763 772.875 674.863 774.775 674.863 777.119C674.863 779.462 676.763 781.362 679.106 781.362C681.45 781.362 683.35 779.462 683.35 777.119Z" fill="white"/>
<path opacity="0.5" d="M618.854 362.903C618.854 360.128 616.605 357.879 613.829 357.879C611.055 357.879 608.805 360.128 608.805 362.903C608.805 365.679 611.055 367.928 613.829 367.928C616.605 367.928 618.854 365.677 618.854 362.903Z" fill="white"/>
<path d="M171.901 400.604C171.901 398.26 170.002 396.361 167.658 396.361C165.315 396.361 163.415 398.26 163.415 400.604C163.415 402.948 165.314 404.848 167.658 404.848C170.002 404.848 171.901 402.947 171.901 400.604Z" fill="white"/>
<path d="M279.858 576.435C279.858 575.586 279.17 574.898 278.321 574.898C277.472 574.898 276.784 575.586 276.784 576.435C276.784 577.284 277.473 577.971 278.321 577.971C279.17 577.971 279.858 577.283 279.858 576.435Z" fill="white"/>
<path d="M686.86 697.07C687.974 697.07 688.877 696.167 688.877 695.053C688.877 693.94 687.974 693.037 686.86 693.037C685.746 693.037 684.844 693.94 684.844 695.053C684.844 696.167 685.746 697.07 686.86 697.07Z" fill="white"/>
<path d="M478.091 226.97C479.205 226.97 480.107 226.068 480.107 224.954C480.107 223.84 479.205 222.937 478.091 222.937C476.977 222.937 476.074 223.84 476.074 224.954C476.074 226.068 476.977 226.97 478.091 226.97Z" fill="white"/>
<path d="M96.891 624.316C96.891 623.467 96.2027 622.779 95.3536 622.779C94.5056 622.779 93.8174 623.468 93.8174 624.316C93.8174 625.165 94.5056 625.852 95.3536 625.852C96.2027 625.852 96.891 625.164 96.891 624.316Z" fill="white"/>
<path d="M118.434 531.141C118.434 530.292 117.745 529.605 116.896 529.605C116.048 529.605 115.36 530.293 115.36 531.141C115.36 531.99 116.048 532.677 116.896 532.677C117.745 532.677 118.434 531.989 118.434 531.141Z" fill="white"/>
<path d="M389.565 348.334C389.552 347.486 388.854 346.808 388.005 346.82C387.157 346.833 386.479 347.531 386.492 348.379C386.505 349.227 387.203 349.905 388.052 349.892C388.9 349.881 389.577 349.182 389.565 348.334Z" fill="white"/>
<path d="M123.051 297.564C123.038 296.715 122.341 296.039 121.492 296.051C120.642 296.063 119.966 296.762 119.979 297.61C119.991 298.459 120.689 299.136 121.538 299.123C122.386 299.111 123.064 298.414 123.051 297.564Z" fill="white"/>
<path opacity="0.5" d="M330.599 217.637C330.599 216.788 329.911 216.1 329.063 216.1C328.214 216.1 327.526 216.788 327.526 217.637C327.526 218.486 328.215 219.173 329.063 219.173C329.911 219.173 330.599 218.486 330.599 217.637Z" fill="white"/>
<path opacity="0.5" d="M447.435 435.04C447.281 434.206 446.479 433.654 445.644 433.808C444.81 433.963 444.258 434.764 444.413 435.599C444.567 436.435 445.368 436.985 446.204 436.831C447.038 436.675 447.59 435.874 447.435 435.04Z" fill="white"/>
<path d="M500.975 397.574C500.975 396.725 500.287 396.038 499.438 396.038C498.59 396.038 497.902 396.726 497.902 397.574C497.902 398.422 498.59 399.111 499.438 399.111C500.287 399.111 500.975 398.422 500.975 397.574Z" fill="white"/>
<path opacity="0.5" d="M694.004 277.382C694.004 276.534 693.316 275.846 692.468 275.846C691.619 275.846 690.932 276.534 690.932 277.382C690.932 278.231 691.62 278.918 692.468 278.918C693.316 278.918 694.004 278.231 694.004 277.382Z" fill="white"/>
<path opacity="0.5" d="M445.305 237.117C445.305 236.268 444.617 235.581 443.769 235.581C442.919 235.581 442.231 236.269 442.231 237.117C442.231 237.965 442.919 238.653 443.769 238.653C444.617 238.653 445.305 237.965 445.305 237.117Z" fill="white"/>
<path opacity="0.5" d="M408.411 419.81C408.411 418.961 407.723 418.274 406.875 418.274C406.026 418.274 405.337 418.962 405.337 419.81C405.337 420.659 406.026 421.346 406.875 421.346C407.724 421.346 408.411 420.658 408.411 419.81Z" fill="white"/>
<path opacity="0.5" d="M586.734 358.075C586.734 357.226 586.046 356.539 585.198 356.539C584.349 356.539 583.661 357.227 583.661 358.075C583.661 358.924 584.349 359.611 585.198 359.611C586.046 359.611 586.734 358.924 586.734 358.075Z" fill="white"/>
<path d="M324.86 165.739C324.86 164.254 323.656 163.05 322.171 163.05C320.686 163.05 319.482 164.254 319.482 165.739C319.482 167.224 320.686 168.428 322.171 168.428C323.656 168.428 324.86 167.224 324.86 165.739Z" fill="white"/>
<path d="M147.631 497.688C147.631 496.203 146.427 494.999 144.941 494.999C143.455 494.999 142.252 496.203 142.252 497.688C142.252 499.173 143.456 500.377 144.941 500.377C146.426 500.377 147.631 499.173 147.631 497.688Z" fill="white"/>
<path d="M579.444 508.721C579.444 507.872 578.756 507.185 577.907 507.185C577.058 507.185 576.371 507.873 576.371 508.721C576.371 509.569 577.059 510.258 577.907 510.258C578.756 510.258 579.444 509.569 579.444 508.721Z" fill="white"/>
<path opacity="0.5" d="M506.868 321.749C506.868 320.899 506.18 320.212 505.332 320.212C504.483 320.212 503.794 320.901 503.794 321.749C503.794 322.597 504.483 323.285 505.332 323.285C506.18 323.285 506.868 322.597 506.868 321.749Z" fill="white"/>
<path d="M240.982 406.205C240.982 405.356 240.294 404.669 239.446 404.669C238.597 404.669 237.909 405.357 237.909 406.205C237.909 407.054 238.598 407.741 239.446 407.741C240.294 407.741 240.982 407.054 240.982 406.205Z" fill="white"/>
<path d="M199.577 221.702C199.577 220.852 198.889 220.165 198.041 220.165C197.192 220.165 196.504 220.854 196.504 221.702C196.504 222.55 197.193 223.238 198.041 223.238C198.889 223.238 199.577 222.551 199.577 221.702Z" fill="white"/>
<path opacity="0.5" d="M110.289 335.258C110.289 334.409 109.601 333.72 108.753 333.72C107.903 333.72 107.216 334.409 107.216 335.258C107.216 336.106 107.905 336.794 108.753 336.794C109.601 336.795 110.289 336.107 110.289 335.258Z" fill="white"/>
<path d="M369.805 654.516C370.282 654.516 370.669 654.13 370.669 653.652C370.669 653.175 370.282 652.788 369.805 652.788C369.328 652.788 368.941 653.175 368.941 653.652C368.941 654.13 369.328 654.516 369.805 654.516Z" fill="white"/>
<path d="M339.932 587.304C339.932 585.651 338.591 584.31 336.938 584.31C335.284 584.31 333.943 585.65 333.943 587.304C333.943 588.958 335.283 590.299 336.938 590.299C338.592 590.299 339.932 588.959 339.932 587.304Z" fill="white"/>
<path d="M280.494 341.249C280.494 339.595 279.154 338.254 277.5 338.254C275.847 338.254 274.505 339.595 274.505 341.249C274.505 342.902 275.846 344.243 277.5 344.243C279.152 344.243 280.494 342.902 280.494 341.249Z" fill="white"/>
<path d="M100.208 177.181C100.208 175.941 99.2024 174.936 97.9623 174.936C96.7223 174.936 95.7166 175.941 95.7166 177.181C95.7166 178.422 96.7223 179.427 97.9623 179.427C99.2024 179.427 100.208 178.422 100.208 177.181Z" fill="white"/>
<path d="M601.941 568.761C601.941 567.894 601.238 567.192 600.372 567.192C599.505 567.192 598.802 567.895 598.802 568.761C598.802 569.628 599.505 570.331 600.372 570.331C601.238 570.33 601.941 569.628 601.941 568.761Z" fill="white"/>
<path d="M118.385 718.877C118.385 718.028 117.696 717.341 116.848 717.341C115.999 717.341 115.312 718.029 115.312 718.877C115.312 719.726 116 720.415 116.848 720.415C117.696 720.414 118.385 719.725 118.385 718.877Z" fill="white"/>
<path d="M647.428 497.2L646.123 503.288L644.818 497.2L640.21 495.745L644.818 494.29L646.123 488.201L647.428 494.29L652.036 495.745L647.428 497.2Z" fill="white"/>
<path d="M233.513 299.855L230.132 315.637L226.749 299.855L214.806 296.085L226.749 292.316L230.132 276.534L233.513 292.316L245.456 296.085L233.513 299.855Z" fill="white"/>
<path d="M397.81 161.626L394.429 177.408L391.046 161.626L379.104 157.857L391.046 154.088L394.429 138.305L397.81 154.088L409.753 157.857L397.81 161.626Z" fill="white"/>
<path opacity="0.5" d="M282.056 234.44L279.934 244.336L277.814 234.44L270.326 232.077L277.814 229.714L279.934 219.818L282.056 229.714L289.543 232.077L282.056 234.44Z" fill="white"/>
<path d="M113.37 142.21L111.25 152.106L109.129 142.21L101.642 139.847L109.129 137.483L111.25 127.588L113.37 137.483L120.858 139.847L113.37 142.21Z" fill="white"/>
<path d="M554.027 279.238L551.907 289.133L549.786 279.238L542.298 276.874L549.786 274.511L551.907 264.616L554.027 274.511L561.515 276.874L554.027 279.238Z" fill="white"/>
<path d="M144.678 353.149L143.353 359.335L142.028 353.149L137.348 351.672L142.028 350.195L143.353 344.01L144.678 350.195L149.358 351.672L144.678 353.149Z" fill="white"/>
<path d="M181.236 542.496L179.115 552.391L176.995 542.496L169.507 540.133L176.995 537.77L179.115 527.874L181.236 537.77L188.724 540.133L181.236 542.496Z" fill="white"/>
<path d="M259.677 771.156L255.929 788.641L252.182 771.156L238.951 766.98L252.182 762.804L255.929 745.318L259.677 762.804L272.907 766.98L259.677 771.156Z" fill="white"/>
<path opacity="0.5" d="M544.478 552.045L542.357 561.941L540.237 552.045L532.748 549.682L540.237 547.318L542.357 537.423L544.478 547.318L551.965 549.682L544.478 552.045Z" fill="white"/>
<path d="M141.321 794.657L139.798 801.758L138.277 794.657L132.904 792.961L138.277 791.265L139.798 784.164L141.321 791.265L146.693 792.961L141.321 794.657Z" fill="white"/>
<path d="M303.377 810.264C303.377 808.8 302.19 807.613 300.725 807.613C299.261 807.613 298.074 808.8 298.074 810.264C298.074 811.729 299.262 812.916 300.725 812.916C302.19 812.916 303.377 811.729 303.377 810.264Z" fill="white"/>
<path d="M634.462 815.866C634.462 814.402 633.274 813.215 631.809 813.215C630.345 813.215 629.158 814.403 629.158 815.866C629.158 817.331 630.346 818.518 631.809 818.518C633.274 818.519 634.462 817.331 634.462 815.866Z" fill="white"/>
<path opacity="0.5" d="M134.364 672.571C134.364 670.228 132.464 668.328 130.121 668.328C127.777 668.328 125.877 670.228 125.877 672.571C125.877 674.915 127.777 676.815 130.121 676.815C132.464 676.815 134.364 674.914 134.364 672.571Z" fill="white"/>
<path opacity="0.5" d="M263.568 132.309C264.413 130.123 263.326 127.666 261.14 126.822C258.955 125.977 256.497 127.063 255.652 129.248C254.807 131.435 255.894 133.891 258.079 134.737C260.266 135.582 262.723 134.495 263.568 132.309Z" fill="white"/>
<path opacity="0.5" d="M179.039 818.814C179.039 817.965 178.351 817.278 177.503 817.278C176.654 817.278 175.967 817.966 175.967 818.814C175.967 819.663 176.655 820.351 177.503 820.351C178.351 820.352 179.039 819.663 179.039 818.814Z" fill="white"/>
<path opacity="0.5" d="M201.774 719.865C201.774 719.017 201.086 718.328 200.238 718.328C199.39 718.328 198.701 719.017 198.701 719.865C198.701 720.714 199.39 721.402 200.238 721.402C201.086 721.401 201.774 720.713 201.774 719.865Z" fill="white"/>
<path opacity="0.5" d="M556.507 744.134C556.507 742.543 555.216 741.252 553.626 741.252C552.034 741.252 550.745 742.543 550.745 744.134C550.745 745.725 552.035 747.015 553.626 747.015C555.218 747.015 556.507 745.725 556.507 744.134Z" fill="white"/>
<path d="M587.915 729.529C587.915 728.68 587.227 727.993 586.379 727.993C585.53 727.993 584.843 728.681 584.843 729.529C584.843 730.377 585.531 731.065 586.379 731.065C587.228 731.065 587.915 730.377 587.915 729.529Z" fill="white"/>
<path d="M436.326 319.32C436.326 318.471 435.638 317.784 434.79 317.784C433.941 317.784 433.254 318.472 433.254 319.32C433.254 320.169 433.942 320.856 434.79 320.856C435.638 320.856 436.326 320.168 436.326 319.32Z" fill="white"/>
<path d="M300.762 384.941C300.762 383.888 299.909 383.036 298.857 383.036C297.805 383.036 296.953 383.888 296.953 384.941C296.953 385.992 297.805 386.845 298.857 386.845C299.909 386.845 300.762 385.992 300.762 384.941Z" fill="white"/>
<path d="M176.599 133.846C177.447 133.846 178.135 133.159 178.135 132.31C178.135 131.462 177.447 130.774 176.599 130.774C175.75 130.774 175.062 131.462 175.062 132.31C175.062 133.159 175.75 133.846 176.599 133.846Z" fill="white"/>
<path d="M312.791 588.308C312.791 587.831 312.404 587.444 311.927 587.444C311.449 587.444 311.062 587.831 311.062 588.308C311.062 588.786 311.449 589.172 311.927 589.172C312.404 589.172 312.791 588.786 312.791 588.308Z" fill="white"/>
<path d="M371.535 775.874C371.535 775.397 371.148 775.01 370.671 775.01C370.194 775.01 369.807 775.397 369.807 775.874C369.807 776.352 370.194 776.738 370.671 776.738C371.147 776.738 371.535 776.352 371.535 775.874Z" fill="white"/>
<path d="M649.856 137.355C649.856 136.877 649.469 136.491 648.992 136.491C648.515 136.491 648.128 136.877 648.128 137.355C648.128 137.832 648.515 138.219 648.992 138.219C649.469 138.219 649.856 137.832 649.856 137.355Z" fill="white"/>
<path d="M633.774 391.571C633.774 391.094 633.387 390.707 632.91 390.707C632.433 390.707 632.045 391.094 632.045 391.571C632.045 392.048 632.432 392.435 632.91 392.435C633.387 392.436 633.774 392.049 633.774 391.571Z" fill="white"/>
<path d="M205.508 605.975C205.508 605.497 205.121 605.111 204.643 605.111C204.166 605.111 203.779 605.497 203.779 605.975C203.779 606.452 204.166 606.839 204.643 606.839C205.12 606.839 205.508 606.452 205.508 605.975Z" fill="white"/>
<path d="M685.331 833.129C685.331 832.28 684.643 831.592 683.795 831.592C682.945 831.592 682.258 832.28 682.258 833.129C682.258 833.977 682.947 834.665 683.795 834.665C684.643 834.665 685.331 833.977 685.331 833.129Z" fill="white"/>
<path d="M491.177 500.875C491.177 499.283 489.887 497.994 488.296 497.994C486.704 497.994 485.415 499.284 485.415 500.875C485.415 502.466 486.705 503.757 488.296 503.757C489.888 503.757 491.177 502.466 491.177 500.875Z" fill="white"/>
<path d="M421.208 616.765L419.903 622.854L418.598 616.765L413.99 615.31L418.598 613.856L419.903 607.766L421.208 613.856L425.816 615.31L421.208 616.765Z" fill="white"/>
<path d="M332.287 515.952L330.982 522.041L329.677 515.952L325.069 514.497L329.677 513.043L330.982 506.953L332.287 513.043L336.895 514.497L332.287 515.952Z" fill="white"/>
<path opacity="0.5" d="M394.583 743.261L392.463 753.157L390.342 743.261L382.854 740.898L390.342 738.534L392.463 728.639L394.583 738.534L402.071 740.898L394.583 743.261Z" fill="white"/>
<path d="M553.3 809.486L550.288 823.543L547.275 809.486L536.64 806.129L547.275 802.772L550.288 788.716L553.3 802.772L563.936 806.129L553.3 809.486Z" fill="white"/>
<path opacity="0.5" d="M681.595 645.976L680.401 651.549L679.207 645.976L674.991 644.646L679.207 643.315L680.401 637.743L681.595 643.315L685.811 644.646L681.595 645.976Z" fill="white"/>
<path d="M588.245 249.376C588.245 247.891 587.041 246.687 585.556 246.687C584.071 246.687 582.867 247.891 582.867 249.376C582.867 250.861 584.071 252.065 585.556 252.065C587.041 252.065 588.245 250.861 588.245 249.376Z" fill="white"/>
<path d="M512.293 516.203C512.952 520.168 510.271 523.915 506.306 524.573C502.341 525.231 498.594 522.551 497.935 518.586C497.277 514.62 499.957 510.874 503.923 510.215C507.887 509.557 511.635 512.237 512.293 516.203Z" fill="white"/>
<path d="M526.749 504.471C527.078 506.453 525.738 508.327 523.755 508.656C521.772 508.986 519.898 507.645 519.569 505.663C519.24 503.68 520.58 501.806 522.563 501.477C524.546 501.148 526.42 502.488 526.749 504.471Z" fill="white"/>
<path d="M542.798 494.934C543.237 497.577 541.449 500.075 538.806 500.514C536.163 500.953 533.665 499.167 533.226 496.522C532.787 493.879 534.573 491.381 537.218 490.942C539.86 490.503 542.359 492.291 542.798 494.934Z" fill="white"/>
<path d="M383.553 355.126C412.488 347.209 444.973 353.579 468.777 371.837C473.934 375.794 479.169 381.962 476.938 388.068C474.522 394.682 465.651 395.519 458.617 395.174C445.884 394.548 432.996 393.77 420.854 389.885C408.711 386.001 397.209 378.634 390.886 367.564" fill="#F2F2F2"/>
<path d="M323.321 353.868C284.437 377.308 284.511 446.543 310.316 489.349C310.753 490.073 311.213 490.765 311.662 491.471L311.578 491.443C311.578 491.443 335.583 531.515 368.478 559.42C395.626 582.45 420.601 592.997 432.97 594.429C442.793 595.567 454.547 592.118 441.279 574.245C430.721 560.022 408.028 528.064 424.764 519.963C441.499 511.862 454.628 548.923 459.353 561.193C470.135 589.19 480.724 567.714 480.724 567.714C498.813 498.17 459.205 432.788 446.908 414.728C444.741 410.271 440.582 403.953 437.211 400.115C407.454 366.24 362.204 330.428 323.321 353.868Z" fill="#F2F2F2"/>
<path d="M339.852 418.407L388.684 389.639L418.175 410.278L354.795 453.084L339.852 418.407Z" fill="#44B78B"/>
<path d="M383.78 280.337C360.164 241.162 302.56 223.379 260.14 248.949C217.721 274.521 206.55 333.764 230.167 372.94C253.783 412.115 304.261 418.076 346.68 392.505C389.098 366.933 407.396 319.513 383.78 280.337Z" fill="#F2F2F2"/>
<path d="M375.189 290.901C358.026 262.432 314.028 248.702 281.709 268.185C249.39 287.668 240.988 332.985 258.15 361.455C275.313 389.925 312.512 392.378 344.831 372.895C377.151 353.413 392.352 319.371 375.189 290.901Z" fill="#D3D3D3"/>
<path d="M298.638 294.2C294.079 286.638 282.392 282.991 273.808 288.166C265.223 293.341 262.991 305.379 267.55 312.941C272.108 320.503 281.99 321.155 290.574 315.979C299.16 310.805 303.197 301.762 298.638 294.2Z" fill="#F2F2F2"/>
<path d="M278.496 331.096C276.35 327.538 270.851 325.822 266.811 328.257C262.771 330.693 261.721 336.357 263.866 339.917C266.012 343.476 270.661 343.782 274.701 341.346C278.741 338.911 280.641 334.656 278.496 331.096Z" fill="#F2F2F2"/>
<path d="M330.187 463.993C328.086 459.983 322.073 461.398 317.999 463.373C316.933 463.889 315.865 464.414 314.8 464.945C314.78 461.479 314.593 457.884 314.214 454.201C311.598 428.82 301.08 409.11 290.72 410.177C280.361 411.245 274.082 432.685 276.698 458.066C279.114 481.512 288.274 500.079 297.823 501.939L297.895 502.139C310.531 505.27 328.179 484.196 330.569 468.99C330.832 467.31 330.976 465.499 330.187 463.993Z" fill="#F2F2F2"/>
<path d="M421.617 563.394C427.73 569.566 429.826 577.402 426.298 580.895C422.77 584.389 414.955 582.219 408.842 576.048C402.729 569.876 400.632 562.04 404.161 558.547C407.688 555.052 415.503 557.223 421.617 563.394Z" fill="#44B78B"/>
<path d="M296.97 482.863C301.584 479.315 306.968 478.578 308.996 481.215C311.023 483.853 308.926 488.867 304.312 492.414C299.698 495.961 294.314 496.698 292.286 494.061C290.259 491.424 292.356 486.41 296.97 482.863Z" fill="#44B78B"/>
<path d="M463.184 375.041C468.192 377.852 470.852 382.623 469.126 385.7C467.399 388.777 461.94 388.992 456.932 386.182C451.924 383.371 449.264 378.599 450.989 375.523C452.716 372.447 458.175 372.231 463.184 375.041Z" fill="#44B78B"/>
<path d="M473.898 551.599C478.773 550.653 481.383 542.973 479.728 534.446C478.073 525.918 472.78 519.772 467.906 520.718C463.031 521.664 460.421 529.344 462.076 537.871C463.731 546.398 469.024 552.544 473.898 551.599Z" fill="#44B78B"/>
<mask id="mask0" mask-type="alpha" maskUnits="userSpaceOnUse" x="250" y="259" width="134" height="128">
<path fill-rule="evenodd" clip-rule="evenodd" d="M376.071 291.499C358.908 263.029 314.91 249.3 282.592 268.782C250.273 288.265 241.87 333.583 259.032 362.052C276.195 390.522 313.394 392.976 345.713 373.492C378.033 354.01 393.234 319.968 376.071 291.499Z" fill="white"/>
</mask>
<g mask="url(#mask0)">
<path d="M268.445 390.36C269.957 388.96 270.823 387.078 271.923 385.405C272.567 387.009 272.753 388.932 273.175 390.474C273.72 392.468 274.371 394.446 275.095 396.383C276.712 400.713 278.859 404.952 281.529 408.728C282.458 410.041 284.759 410.146 285.695 408.761C287.623 405.905 288.511 402.743 289.946 399.653C291.166 397.029 292.864 394.611 294.707 392.333C294.919 393.307 295.069 394.301 295.265 395.269C295.642 397.13 297.828 398.325 299.463 397.015C300.253 396.381 306.458 391.702 308.664 389.699C308.803 389.802 308.928 389.893 309.002 389.949C309.826 390.592 310.717 391.166 311.75 391.391C315.572 392.223 319.401 389.149 322.06 386.272C322.827 386.662 323.57 386.959 324.683 386.776C326.614 386.458 327.147 385.046 328.489 383.971C331.52 381.542 336.259 386.173 339.579 383.331C340.979 382.134 340.963 380.068 342.156 378.676C344.62 375.801 345.992 378.022 348.824 377.206C351.148 376.536 351.97 374.477 352.526 372.303C356.855 370.158 367.195 365.803 366.132 360.734C366.483 360.595 366.833 360.458 367.183 360.32C368.137 359.921 369.158 359.698 370.108 359.279C371.351 358.729 372.631 358.007 373.475 356.906C375.194 354.662 375.21 352.106 378.213 350.807C380.415 349.854 382.873 349.454 385.14 348.66C386.984 348.013 387.305 345.285 385.756 344.159C384.318 343.115 382.717 342.231 381.228 341.213C386.534 339.043 391.799 337.388 397.615 336.626C400.844 336.203 405.867 335.26 404.824 330.894C403.982 327.373 400.401 324.068 398.058 321.464C394.693 317.721 390.72 314.913 386.492 312.398C389.764 311.557 393.175 311.141 396.358 309.905C397.942 309.29 398.452 307.209 397.445 305.885C395.458 303.27 392.672 301.494 390.077 299.538C388.348 298.234 386.597 296.963 384.721 295.877C384.592 295.802 384.459 295.734 384.326 295.664C385.169 295.442 386.013 295.218 386.847 294.948C388.661 294.359 389.055 291.501 387.463 290.448C380.348 285.737 371.493 283.237 363.74 279.679C357.441 276.788 350.708 274.214 343.703 274.598C343.625 271.763 343.587 268.925 343.584 266.081C343.578 261.101 343.445 256.121 343.032 251.156C342.68 246.931 341.713 242.705 341.593 238.476C341.563 237.417 341.031 236.762 340.317 236.462C339.295 235.406 337.576 235.105 336.557 236.675C335.888 237.706 335.22 238.753 334.549 239.81C333.355 238.742 331.139 238.663 330.237 240.558C329.851 241.365 329.427 242.165 328.98 242.959C328.071 242.64 327.038 242.835 326.325 243.898C322.923 248.966 319.259 254.796 316.854 260.674C316.039 259.697 314.6 259.189 313.249 260.099C310.419 262.005 307.22 263.274 304.378 265.136C303.341 264.364 301.784 264.215 300.69 265.455C299.738 266.536 298.989 267.733 298.309 268.972C297.076 268.337 295.392 268.527 294.672 270.159C294.176 271.284 293.81 272.446 293.486 273.621C289.01 275.703 284.521 277.712 280.363 280.431C278.518 281.637 279.226 283.815 280.72 284.693C278.246 286.35 275.767 288.002 273.27 289.624C272.153 290.35 271.976 291.432 272.333 292.371C267.058 292.593 261.799 293.883 256.677 295.001C251.065 296.223 244.866 296.185 239.564 298.51C238.229 299.096 237.845 300.331 238.085 301.439C235.989 301.994 233.88 302.488 231.73 302.829C230.197 303.072 229.522 304.303 229.554 305.511C229.499 305.524 229.445 305.538 229.391 305.55C228.09 305.845 226.822 307.027 227.132 308.507C228.275 313.969 235.653 318.908 239.925 321.765C244.162 324.598 248.469 327.381 252.561 330.422C253.763 331.315 255.018 332.162 256.272 333.014C254.206 338.285 253.581 344.025 253.768 349.679C253.977 355.978 254.74 363.423 257.28 369.231C257.898 370.645 260.024 371.519 261.3 370.319C261.365 370.257 261.43 370.187 261.494 370.114C261.481 370.298 261.467 370.484 261.462 370.656C261.418 372.634 261.409 374.616 261.583 376.587C261.963 380.91 263.012 385.174 264.425 389.269C264.942 390.77 267.237 391.478 268.445 390.36Z" fill="#FFBE55"/>
<path d="M230.563 310.309C230.387 309.215 231.271 307.977 232.408 307.896C238.144 307.486 243.978 309.681 249.476 311.08C252.183 311.768 254.796 312.676 257.457 313.513C259.984 314.308 262.341 315.108 264.217 317.043C265.187 318.042 264.791 319.192 263.919 319.835C264.01 320.26 263.983 320.709 263.801 321.112C262.819 323.272 260.648 328.086 257.919 328.488C256.567 328.687 255.382 327.821 254.295 327.16C252.432 326.024 250.651 324.786 248.733 323.737C244.982 321.685 241.052 319.958 237.555 317.468C235.205 315.793 231.065 313.411 230.563 310.309Z" fill="#F2F2F2"/>
<path d="M330.005 269.979C332.3 262.225 331.94 253.796 334.835 246.197C335.497 244.46 337.321 242.49 338.891 243.31C339.804 243.566 340.552 244.379 340.37 245.423C340.686 246.613 340.527 247.941 340.494 249.139C340.435 251.338 340.473 253.512 340.235 255.699C340.33 256.75 340.435 257.801 340.566 258.85C340.823 260.905 341.025 262.944 341.085 265.017C341.148 267.197 341.599 269.554 341.311 271.722C340.831 275.326 337.414 275.615 334.419 275.405C333.1 275.312 331.54 275.39 330.555 274.351C329.397 273.13 329.566 271.464 330.005 269.979Z" fill="#F2F2F2"/>
<path d="M316.268 324.462C325.259 318.169 335.92 313.096 346.156 314.26C356.393 315.425 365.087 323.599 364.124 333.626C363.507 340.07 359.279 346.125 354.571 351.295C348.42 358.052 341.047 364.028 332.627 367.643C324.207 371.259 314.669 372.341 306.763 369.527C299.562 366.964 281.239 348.984 316.268 324.462Z" fill="#F2F2F2"/>
<path d="M334.054 348.003C330.013 343.74 326.575 338.941 323.839 333.744L322.529 334.433C325.328 339.75 328.844 344.659 332.979 349.021L334.054 348.003Z" fill="black"/>
<path d="M328.515 335.447C329.432 334.395 331.069 335.819 330.15 336.872C329.232 337.925 327.596 336.5 328.515 335.447Z" fill="#F2F2F2"/>
<path d="M332.396 340.769C333.313 339.718 334.95 341.142 334.03 342.195C333.113 343.247 331.478 341.823 332.396 340.769Z" fill="#F2F2F2"/>
<path d="M337.588 335.217C338.505 334.165 340.142 335.589 339.222 336.643C338.306 337.695 336.67 336.271 337.588 335.217Z" fill="#F2F2F2"/>
<path d="M322.242 339.56C323.159 338.508 324.796 339.932 323.876 340.985C322.959 342.037 321.323 340.614 322.242 339.56Z" fill="#F2F2F2"/>
<path d="M326.019 345.11C326.937 344.057 328.573 345.482 327.654 346.535C326.738 347.587 325.101 346.162 326.019 345.11Z" fill="#F2F2F2"/>
<path d="M320.172 346.802C321.09 345.751 322.726 347.174 321.807 348.228C320.889 349.28 319.253 347.857 320.172 346.802Z" fill="#F2F2F2"/>
<path d="M315.572 332.672C315.41 331.089 316.704 330.27 317.812 329.46C318.688 328.82 319.472 328.064 320.347 327.419C322.336 325.955 326.057 324.381 327.31 327.637C327.599 328.389 327.543 329.234 327.297 330.051C327.408 331.278 327.071 332.556 326.606 333.684C326.016 335.113 325.106 336.822 323.412 337.05C321.918 337.25 320.146 336.527 318.793 335.95C317.408 335.36 315.741 334.338 315.572 332.672Z" fill="#FF5EB3"/>
<path d="M369.47 300.215C366.863 300.079 364.379 300.012 362.102 299.955C359.809 299.918 357.743 299.885 355.999 299.857C352.481 299.77 350.151 299.511 349.919 298.569C349.694 297.675 351.673 296.245 355.273 295.061C356.172 294.769 357.168 294.483 358.253 294.256C359.334 293.997 360.505 293.821 361.742 293.645C364.218 293.342 366.971 293.215 369.852 293.366C372.731 293.536 375.453 293.967 377.88 294.543C379.09 294.856 380.234 295.16 381.28 295.537C382.332 295.884 383.29 296.279 384.151 296.669C387.597 298.244 389.405 299.885 389.084 300.749C388.748 301.659 386.403 301.658 382.898 301.354C381.163 301.189 379.104 300.993 376.821 300.776C374.552 300.577 372.075 300.369 369.47 300.215Z" fill="#FF9843"/>
<path d="M360.809 304.694C363.284 303.943 366.838 303.554 370.718 303.943C374.597 304.338 378.002 305.431 380.276 306.662C382.562 307.894 383.73 309.209 383.437 310.097C383.138 311.007 381.475 311.339 379.072 311.36C376.663 311.377 373.501 311.123 370.028 310.768C366.554 310.421 363.405 310.037 361.048 309.539C358.698 309.037 357.136 308.378 357.024 307.427C356.915 306.499 358.324 305.444 360.809 304.694Z" fill="#FF9843"/>
<path d="M372.631 321.495C369.838 320.606 368.025 319.76 368.038 318.795C368.049 317.867 369.941 316.993 373.099 316.667C374.674 316.498 376.556 316.501 378.63 316.693C380.7 316.904 382.962 317.317 385.273 317.98C387.58 318.658 389.711 319.521 391.572 320.452C393.427 321.4 395.016 322.406 396.258 323.392C398.749 325.359 399.88 327.112 399.391 327.901C398.885 328.722 396.901 328.467 394.066 327.72C392.649 327.34 391.001 326.862 389.201 326.31C387.403 325.775 385.43 325.185 383.36 324.569C381.281 323.982 379.3 323.422 377.494 322.912C375.678 322.413 374.031 321.934 372.631 321.495Z" fill="#FF9843"/>
<path d="M379.599 327.682C383.903 328.844 386.993 331.266 386.5 333.096C386.006 334.925 382.118 335.466 377.813 334.306C373.509 333.146 370.419 330.722 370.912 328.892C371.406 327.063 375.295 326.522 379.599 327.682Z" fill="#FF9843"/>
<path d="M284.54 391.162C284.844 389.079 285.368 386.812 286.161 384.512C286.968 382.216 287.965 380.114 289.02 378.294C290.095 376.48 291.216 374.943 292.297 373.763C294.455 371.389 296.307 370.393 297.052 370.942C297.832 371.513 297.409 373.476 296.457 376.257C295.974 377.647 295.386 379.262 294.72 381.027C294.072 382.801 293.357 384.729 292.639 386.768C291.936 388.81 291.299 390.765 290.704 392.558C290.13 394.355 289.588 395.987 289.104 397.376C288.123 400.146 287.236 401.949 286.269 401.912C285.343 401.88 284.511 399.948 284.294 396.748C284.18 395.151 284.256 393.25 284.54 391.162Z" fill="#FF9843"/>
<path d="M285.726 375.821C284.198 378.356 282.712 380.606 281.389 382.206C280.067 383.798 278.874 384.731 277.965 384.428C277.076 384.133 276.653 382.613 276.903 380.361C277.146 378.118 278.11 375.164 279.855 372.272C281.605 369.381 283.773 367.156 285.646 365.899C287.524 364.632 289.067 364.3 289.741 364.95C290.431 365.614 290.16 367.105 289.364 369.015C288.562 370.93 287.26 373.291 285.726 375.821Z" fill="#FF9843"/>
<path d="M267.507 374.231C267.674 373.419 267.896 372.537 268.222 371.622C268.514 370.69 268.931 369.741 269.382 368.74C270.331 366.768 271.59 364.694 273.171 362.713C274.767 360.745 276.524 359.069 278.247 357.719C279.128 357.065 279.966 356.452 280.813 355.968C281.638 355.454 282.452 355.048 283.209 354.711C286.253 353.368 288.418 353.295 288.833 354.111C289.28 354.976 287.994 356.545 285.978 358.693C285.473 359.233 284.915 359.8 284.34 360.431C283.742 361.031 283.149 361.716 282.498 362.396C281.234 363.798 279.876 365.338 278.516 367.011C277.173 368.699 275.961 370.354 274.862 371.889C274.337 372.669 273.797 373.396 273.337 374.109C272.843 374.805 272.411 375.472 271.99 376.081C270.325 378.511 269.068 380.104 268.126 379.852C267.24 379.623 266.847 377.492 267.507 374.231Z" fill="#FF9843"/>
<path d="M276.256 353.878C274.825 355.37 273.492 356.817 272.259 358.141C271.044 359.478 269.921 360.688 268.947 361.71C266.987 363.743 265.484 364.978 264.614 364.558C263.779 364.16 263.757 362.114 264.806 359.184C265.323 357.719 266.137 356.064 267.218 354.329C268.315 352.608 269.688 350.816 271.322 349.113C272.967 347.421 274.71 345.986 276.393 344.83C278.089 343.69 279.715 342.818 281.16 342.249C284.052 341.099 286.097 341.049 286.524 341.869C286.974 342.724 285.792 344.269 283.83 346.299C282.841 347.309 281.672 348.473 280.379 349.733C279.096 351.012 277.698 352.397 276.256 353.878Z" fill="#FF9843"/>
<path d="M332.94 301.114C333.785 302.475 334.424 305.172 333.938 306.698C333.391 308.42 331.407 309.398 329.607 309.222C327.809 309.046 326.217 307.946 324.983 306.627C323.819 305.385 322.878 303.88 322.581 302.204C322.285 300.528 322.594 298.537 323.94 297.495C327.709 294.573 331.258 298.404 332.94 301.114Z" fill="black"/>
<path d="M331.695 303.956C331.157 304.434 330.274 304.416 329.703 303.977C328.608 303.137 328.896 300.971 330.475 301.046C331.823 301.111 332.801 302.974 331.695 303.956Z" fill="#F2F2F2"/>
<path d="M293.03 328.281C293.875 329.642 294.514 332.339 294.028 333.865C293.481 335.587 291.497 336.565 289.698 336.389C287.899 336.213 286.308 335.112 285.073 333.794C283.91 332.552 282.968 331.047 282.672 329.371C282.376 327.695 282.684 325.704 284.03 324.661C287.799 321.741 291.347 325.572 293.03 328.281Z" fill="black"/>
<path d="M291.785 331.122C291.247 331.6 290.364 331.582 289.792 331.143C288.698 330.302 288.986 328.136 290.565 328.212C291.911 328.277 292.891 330.138 291.785 331.122Z" fill="#F2F2F2"/>
<path d="M374.512 330.502C370.75 329.742 366.565 329.142 362.141 328.91C357.714 328.722 353.492 328.923 349.675 329.323C347.773 329.58 345.958 329.784 344.286 330.136C343.448 330.301 342.631 330.422 341.858 330.603C341.087 330.787 340.346 330.964 339.639 331.134C338.215 331.436 336.966 331.855 335.852 332.164C335.297 332.328 334.775 332.464 334.303 332.613C333.834 332.773 333.406 332.918 333.019 333.049C331.472 333.566 330.598 333.818 330.568 333.746C330.538 333.673 331.355 333.281 332.863 332.633C333.243 332.472 333.663 332.294 334.123 332.099C334.588 331.917 335.104 331.749 335.653 331.556C336.759 331.185 338.005 330.708 339.431 330.352C340.141 330.158 340.884 329.954 341.659 329.743C342.436 329.538 343.258 329.393 344.103 329.206C345.789 328.809 347.624 328.566 349.549 328.276C353.413 327.812 357.701 327.576 362.195 327.768C366.686 328.004 370.933 328.645 374.736 329.473C376.625 329.944 378.429 330.359 380.07 330.914C380.893 331.179 381.698 331.402 382.452 331.68C383.202 331.965 383.923 332.236 384.611 332.497C385.997 332.987 387.193 333.58 388.258 334.054C388.787 334.299 389.285 334.515 389.731 334.74C390.17 334.977 390.572 335.195 390.934 335.391C392.374 336.179 393.15 336.647 393.114 336.717C393.077 336.786 392.231 336.453 390.74 335.791C390.367 335.624 389.955 335.438 389.503 335.235C389.047 335.041 388.54 334.856 388.004 334.641C386.924 334.226 385.72 333.693 384.331 333.256C383.643 333.02 382.923 332.774 382.173 332.518C381.421 332.264 380.618 332.066 379.8 331.823C378.168 331.313 376.38 330.939 374.512 330.502Z" fill="#F2F2F2"/>
<path d="M335.834 337.186C336.382 337.207 336.976 337.255 337.615 337.294C338.892 337.389 340.353 337.454 341.953 337.668C342.755 337.763 343.595 337.862 344.469 337.966C345.344 338.073 346.245 338.244 347.184 338.389C349.064 338.661 351.047 339.1 353.138 339.535C357.301 340.497 361.828 341.777 366.465 343.464C371.089 345.184 375.367 347.145 379.16 349.109C381.035 350.133 382.828 351.083 384.438 352.095C385.246 352.592 386.043 353.048 386.779 353.532C387.512 354.021 388.216 354.489 388.889 354.937C390.246 355.811 391.401 356.709 392.435 357.464C392.949 357.847 393.431 358.197 393.863 358.536C394.286 358.884 394.673 359.203 395.022 359.49C396.409 360.643 397.151 361.308 397.102 361.369C397.051 361.431 396.217 360.884 394.752 359.844C394.387 359.582 393.982 359.292 393.539 358.975C393.085 358.67 392.593 358.34 392.064 357.985C391.001 357.283 389.822 356.439 388.447 355.614C387.767 355.19 387.055 354.745 386.314 354.282C385.571 353.821 384.77 353.388 383.958 352.914C382.342 351.945 380.548 351.035 378.677 350.046C374.894 348.15 370.647 346.24 366.071 344.537C361.481 342.867 357.01 341.571 352.901 340.561C350.835 340.102 348.879 339.632 347.021 339.322C346.094 339.157 345.203 338.967 344.339 338.837C343.475 338.709 342.644 338.587 341.852 338.469C340.27 338.205 338.825 338.085 337.56 337.93C336.929 337.858 336.339 337.79 335.796 337.728C335.253 337.682 334.756 337.642 334.308 337.604C332.519 337.447 331.528 337.322 331.531 337.243C331.533 337.164 332.529 337.139 334.332 337.16C334.784 337.168 335.285 337.176 335.834 337.186Z" fill="#F2F2F2"/>
<path d="M341.288 334.239C334.656 334.662 330.637 335.721 330.593 335.508C330.576 335.44 331.56 335.113 333.384 334.677C335.207 334.238 337.883 333.748 341.227 333.433C344.569 333.113 348.588 333.032 353.021 333.424C357.451 333.812 362.289 334.721 367.19 336.269C372.083 337.848 376.551 339.908 380.387 342.158C384.228 344.405 387.456 346.8 389.996 348.997C392.539 351.191 394.436 353.141 395.668 354.555C396.901 355.966 397.514 356.803 397.462 356.848C397.303 356.997 394.641 353.805 389.479 349.619C384.356 345.432 376.494 340.434 366.843 337.359C357.192 334.276 347.889 333.796 341.288 334.239Z" fill="#F2F2F2"/>
<path d="M327.035 395.826C326.706 394.875 326.304 393.8 325.956 392.583C325.774 391.975 325.583 391.339 325.384 390.678C325.189 390.014 325.024 389.313 324.834 388.592C324.44 387.154 324.121 385.592 323.77 383.952C323.128 380.66 322.583 377.008 322.264 373.147C321.97 369.285 321.933 365.592 322.047 362.24C322.136 360.565 322.205 358.973 322.367 357.491C322.44 356.749 322.493 356.031 322.581 355.345C322.672 354.66 322.761 354.002 322.845 353.373C322.997 352.115 323.224 350.99 323.399 350C323.568 349.008 323.757 348.162 323.928 347.475C324.259 346.098 324.477 345.347 324.554 345.363C324.74 345.4 324.162 348.47 323.647 353.471C323.587 354.096 323.524 354.752 323.458 355.433C323.394 356.115 323.364 356.829 323.31 357.565C323.191 359.038 323.158 360.614 323.098 362.273C323.044 365.592 323.112 369.241 323.402 373.058C323.717 376.874 324.226 380.488 324.803 383.756C325.124 385.384 325.404 386.936 325.754 388.371C325.923 389.089 326.064 389.789 326.236 390.453C326.409 391.117 326.574 391.753 326.732 392.361C328.029 397.218 329.085 400.158 328.906 400.226C328.832 400.253 328.498 399.546 327.954 398.238C327.678 397.583 327.359 396.778 327.035 395.826Z" fill="#F2F2F2"/>
<path d="M311.594 392.768C310.887 387.288 310.031 379.616 310.645 371.12C310.975 366.879 311.685 362.867 312.695 359.316C313.704 355.764 314.978 352.673 316.297 350.213C317.61 347.75 318.897 345.886 319.881 344.679C320.86 343.468 321.476 342.866 321.529 342.91C321.707 343.043 319.414 345.636 317.019 350.579C315.815 353.039 314.645 356.096 313.711 359.595C312.776 363.093 312.11 367.035 311.785 371.207C311.181 379.57 311.897 387.189 312.397 392.679C312.658 395.42 312.869 397.642 313.016 399.195C313.148 400.737 313.186 401.595 313.108 401.605C313.03 401.616 312.843 400.778 312.575 399.253C312.308 397.726 311.958 395.515 311.594 392.768Z" fill="#F2F2F2"/>
<path d="M286.855 386.736C287.081 386.049 287.377 385.216 287.764 384.265C288.145 383.313 288.558 382.217 289.098 381.043C289.616 379.858 290.195 378.566 290.881 377.207C291.532 375.831 292.313 374.405 293.12 372.898C294.789 369.911 296.754 366.696 299.013 363.456C301.291 360.228 303.643 357.284 305.882 354.698C307.025 353.424 308.099 352.204 309.171 351.124C310.214 350.017 311.233 349.033 312.169 348.141C313.09 347.233 313.979 346.473 314.745 345.789C315.507 345.101 316.19 344.539 316.759 344.093C317.888 343.191 318.536 342.723 318.587 342.782C318.709 342.925 316.323 345.04 312.738 348.715C311.844 349.637 310.867 350.646 309.863 351.772C308.829 352.871 307.791 354.104 306.68 355.384C304.505 357.984 302.203 360.916 299.948 364.112C297.712 367.321 295.739 370.484 294.037 373.416C293.211 374.895 292.407 376.292 291.725 377.638C291.009 378.965 290.393 380.229 289.831 381.382C287.596 386.005 286.421 388.969 286.246 388.903C286.172 388.874 286.393 388.106 286.855 386.736Z" fill="#F2F2F2"/>
</g>
<path d="M335.817 355.81C338.456 355.81 340.595 353.671 340.595 351.032C340.595 348.393 338.456 346.254 335.817 346.254C333.178 346.254 331.039 348.393 331.039 351.032C331.039 353.671 333.178 355.81 335.817 355.81Z" fill="black"/>
<path opacity="0.1" d="M737.519 359.169C729.551 372.198 730.96 389.895 734.374 403.849C735.517 408.521 736.837 413.448 735.82 418.684C734.577 425.085 730.124 430.131 725.626 433.019C717.425 438.287 708.088 438.179 701.326 432.741C695.472 428.04 691.64 419.817 685.67 415.371C675.668 407.93 661.891 412.526 649.907 419.576C641.427 424.562 632.095 430.872 624.298 427.356C618.812 424.882 615.419 417.85 613.846 410.187C613.089 406.489 612.641 402.447 610.881 399.632C609.834 397.959 608.39 396.843 606.893 395.929C593.221 387.596 574.648 394.691 561.472 385.246C552.572 378.866 547.551 365.636 545.945 351.471C544.34 337.307 545.761 322.133 547.532 307.193C548.798 296.578 550.499 285.21 556.023 276.554C561.864 267.398 571.033 263.282 578.982 264.102C586.931 264.922 593.815 270.022 599.74 276.25C607.147 284.035 613.811 293.989 623.429 296.468C629.971 298.157 637.149 296.138 644.119 294.984C655.772 293.055 667.251 293.545 678.644 294.202C689.554 294.83 700.531 295.629 710.684 299.489C717.868 302.22 723.366 307.946 730.065 311.655C734.432 314.073 739.37 314.361 743.435 317.594C748.443 321.566 752.758 328.948 750.707 338.295C748.756 347.184 741.746 352.256 737.519 359.169Z" fill="#5583BF"/>
<path d="M740.608 324.114C738.213 325.731 728.339 326.086 728.339 326.086C728.339 326.086 732.355 317.061 734.75 315.442C735.901 314.695 737.299 314.429 738.643 314.702C739.988 314.975 741.171 315.765 741.939 316.902C742.707 318.039 742.998 319.431 742.749 320.78C742.5 322.129 741.731 323.327 740.608 324.114Z" fill="#5583BF"/>
<path d="M716.546 330.738C718.794 332.553 728.6 333.751 728.6 333.751C728.6 333.751 725.371 324.406 723.123 322.598C722.041 321.759 720.672 321.377 719.311 321.535C717.95 321.693 716.706 322.379 715.844 323.444C714.983 324.51 714.575 325.871 714.706 327.234C714.837 328.598 715.498 329.856 716.546 330.738Z" fill="#5583BF"/>
<path d="M740.608 324.114C738.213 325.731 728.339 326.086 728.339 326.086C728.339 326.086 732.355 317.061 734.75 315.442C735.901 314.695 737.299 314.429 738.643 314.702C739.988 314.975 741.171 315.765 741.939 316.902C742.707 318.039 742.998 319.431 742.749 320.78C742.5 322.129 741.731 323.327 740.608 324.114Z" fill="#FC6681"/>
<path d="M716.546 330.738C718.794 332.553 728.6 333.751 728.6 333.751C728.6 333.751 725.371 324.406 723.123 322.598C722.041 321.759 720.672 321.377 719.311 321.535C717.95 321.693 716.706 322.379 715.844 323.444C714.983 324.51 714.575 325.871 714.706 327.234C714.837 328.598 715.498 329.856 716.546 330.738Z" fill="#FC6681"/>
<path opacity="0.1" d="M617.765 275.816C617.965 276.108 618.122 276.426 618.232 276.762C622.274 281.509 624.426 285.941 620.543 286.053C616.924 286.156 612.582 292.627 611.542 294.26C611.577 294.386 611.618 294.51 611.666 294.632C611.666 294.632 616.755 286.17 620.898 286.051C625.041 285.932 622.321 280.904 617.765 275.816Z" fill="#403218"/>
<path d="M622.055 279.661C622.055 280.724 621.936 281.584 621.788 281.584C621.641 281.584 621.522 280.722 621.522 279.661C621.522 278.601 621.672 279.098 621.819 279.098C621.966 279.098 622.055 278.601 622.055 279.661Z" fill="#FFD037"/>
<path d="M623.527 280.93C622.592 281.439 621.781 281.745 621.711 281.617C621.641 281.488 622.34 280.972 623.272 280.462C624.204 279.953 623.837 280.325 623.908 280.462C623.978 280.6 624.459 280.42 623.527 280.93Z" fill="#FFD037"/>
<path d="M772 405.456L751.529 315.4H743.924C743.62 311.959 743.417 308.625 743.34 305.486C743.34 305.486 715.768 311.518 693.781 294.066C671.793 276.615 645.944 295.575 645.944 295.575L645.843 295.503V295.468V295.512C644.049 294.241 619.286 277.274 598.114 294.08C576.136 311.532 548.555 305.5 548.555 305.5C548.478 308.679 548.273 312.041 547.962 315.515H540.905L520 405.781C520 405.781 604.981 408.963 634.761 406.029C635.829 408.285 640.432 409.981 645.946 409.981C652.143 409.981 657.183 407.839 657.358 405.169C680.539 406.933 730.421 409.752 772 405.456Z" fill="url(#paint0_linear)"/>
<g filter="url(#filter0_d)">
<path d="M543.095 316.192L522.629 404.58C522.629 404.58 635.291 408.799 644.364 402.893C644.364 402.893 714.305 409.96 769.371 404.265L749.328 316.089L543.095 316.192Z" fill="#E2E2EC"/>
</g>
<path opacity="0.1" d="M550.058 319.246L530.977 401.651C530.977 401.651 636.016 405.585 644.474 400.078C644.474 400.078 709.681 406.666 761.02 401.356L742.328 319.148L550.058 319.246Z" fill="black"/>
<path d="M741.311 306.385C741.311 306.385 714.305 312.291 692.785 295.204C671.265 278.117 645.946 296.68 645.946 296.68C645.946 296.68 620.629 278.117 599.109 295.204C577.59 312.291 550.583 306.385 550.583 306.385C549.733 340.769 533.706 396.46 533.706 396.46C533.706 396.46 563.243 404.475 602.276 388.234C641.308 371.992 645.949 393.929 645.949 393.929C645.949 393.929 650.589 371.99 689.622 388.234C728.654 404.477 758.191 396.46 758.191 396.46C758.191 396.46 742.155 340.769 741.311 306.385Z" fill="#F1F2FB"/>
<path opacity="0.1" d="M593.836 394.567C593.836 394.567 629.492 386.552 645.942 398.363C645.942 398.363 661.765 384.019 698.475 395.2" fill="black"/>
<path d="M645.946 408.694C652.122 408.694 657.129 406.522 657.129 403.842C657.129 401.162 652.122 398.99 645.946 398.99C639.77 398.99 634.763 401.162 634.763 403.842C634.763 406.522 639.77 408.694 645.946 408.694Z" fill="#E8EAF8"/>
<path opacity="0.1" d="M645.841 296.575C645.841 296.575 653.858 337.288 646.051 394.665L645.841 296.575Z" fill="black"/>
<path opacity="0.1" d="M558.308 319.148C558.308 319.148 575.101 323.049 589.637 319.148C604.173 315.246 630.861 302.484 639.64 319.148" stroke="black" stroke-width="4" stroke-miterlimit="10"/>
<path opacity="0.1" d="M558.308 326.32C558.308 326.32 575.101 330.221 589.637 326.32C604.173 322.418 635.647 322.629 639.64 326.32" stroke="black" stroke-width="4" stroke-miterlimit="10"/>
<path opacity="0.1" d="M558.308 338.966C558.308 338.966 575.101 342.867 589.637 338.966C604.173 335.064 630.861 322.301 639.64 338.966" stroke="black" stroke-width="4" stroke-miterlimit="10"/>
<path opacity="0.1" d="M556 360.092C556 360.092 572.793 363.993 587.329 360.092C601.865 356.19 628.553 343.428 637.332 360.092" stroke="black" stroke-width="4" stroke-miterlimit="10"/>
<path opacity="0.1" d="M558.308 346.147C558.308 346.147 575.101 350.049 589.637 346.147C604.173 342.246 635.647 342.456 639.64 346.147" stroke="black" stroke-width="4" stroke-miterlimit="10"/>
<path opacity="0.1" d="M556 367.273C556 367.273 572.793 371.175 587.329 367.273C601.865 363.372 633.338 363.582 637.332 367.273" stroke="black" stroke-width="4" stroke-miterlimit="10"/>
<path opacity="0.1" d="M733.587 319.148C733.587 319.148 716.794 323.049 702.258 319.148C687.722 315.246 661.033 302.484 652.255 319.148" stroke="black" stroke-width="4" stroke-miterlimit="10"/>
<path opacity="0.1" d="M733.587 326.32C733.587 326.32 716.794 330.221 702.258 326.32C687.722 322.418 656.248 322.629 652.255 326.32" stroke="black" stroke-width="4" stroke-miterlimit="10"/>
<path opacity="0.1" d="M733.587 338.966C733.587 338.966 716.794 342.867 702.258 338.966C687.722 335.064 661.033 322.301 652.255 338.966" stroke="black" stroke-width="4" stroke-miterlimit="10"/>
<path opacity="0.1" d="M733.587 346.147C733.587 346.147 716.794 350.049 702.258 346.147C687.722 342.246 656.248 342.456 652.255 346.147" stroke="black" stroke-width="4" stroke-miterlimit="10"/>
<path d="M466.493 779.94L461.488 796.211L459.148 803.812C458.385 806.292 460.708 808.616 463.188 807.852L470.789 805.512L487.061 800.507L466.493 779.94Z" fill="#DC8744"/>
<path d="M470.789 805.512L463.188 807.852C460.708 808.615 458.385 806.292 459.148 803.812L461.488 796.211L470.789 805.512Z" fill="#3A556A"/>
<path d="M476.777 790.222L562.471 704.529L552.188 694.245L466.494 779.939L476.777 790.222Z" fill="#FCD462"/>
<path d="M487.061 800.506L572.755 714.812L562.471 704.528L476.777 790.222L487.061 800.506Z" fill="#F6C358"/>
<path d="M572.76 714.808L552.192 694.24L562.455 683.977C563.757 682.674 565.869 682.674 567.171 683.977L583.023 699.829C584.325 701.131 584.325 703.243 583.023 704.545L572.76 714.808Z" fill="#E56353"/>
<path d="M564.042 723.525L567.47 720.097L546.902 699.529L543.474 702.957L564.042 723.525Z" fill="#EBF0F3"/>
<path d="M557.182 730.378L560.611 726.95L540.042 706.382L536.614 709.81L557.182 730.378Z" fill="#EBF0F3"/>
<defs>
<filter id="filter0_d" x="513.629" y="310.089" width="270.743" height="114.394" filterUnits="userSpaceOnUse" color-interpolation-filters="sRGB">
<feFlood flood-opacity="0" result="BackgroundImageFix"/>
<feColorMatrix in="SourceAlpha" type="matrix" values="0 0 0 0 0 0 0 0 0 0 0 0 0 0 0 0 0 0 127 0"/>
<feOffset dx="3" dy="6"/>
<feGaussianBlur stdDeviation="6"/>
<feColorMatrix type="matrix" values="0 0 0 0 0 0 0 0 0 0 0 0 0 0 0 0 0 0 0.25 0"/>
<feBlend mode="normal" in2="BackgroundImageFix" result="effect1_dropShadow"/>
<feBlend mode="normal" in="SourceGraphic" in2="effect1_dropShadow" result="shape"/>
</filter>
<linearGradient id="paint0_linear" x1="646" y1="409.979" x2="646" y2="286.689" gradientUnits="userSpaceOnUse">
<stop stop-color="#808080" stop-opacity="0.25"/>
<stop offset="0.54" stop-color="#808080" stop-opacity="0.12"/>
<stop offset="1" stop-color="#808080" stop-opacity="0.1"/>
</linearGradient>
</defs>
</svg>
